# xmcd
#
# Track frame offsets:
#	150
#	18595
#	34040
#	55875
#
# Disc length: 958 seconds
# Revision: 0
# Processed by: cddbd v1.5.2PL0 Copyright (c) Steve Scherf et al.
# Submitted via: dBpowerAMP V12.0
#
DISCID=2b03bc04
DTITLE=Indecent Obsession - Say Goodbye
DYEAR=1990
DGENRE=Synthpop
TTITLE0=Say Goodbye [7" Version]
TTITLE1=Can't Somebody [Live]
TTITLE2=Say Goodbye [Live]
TTITLE3=Take Me Higher
EXTD=
EXTT0=
EXTT1=
EXTT2=
EXTT3=
PLAYORDER=
